<?xml version="1.0" encoding="utf-8"?>
<!-- Generator: Adobe Illustrator 17.0.0, SVG Export Plug-In . SVG Version: 6.00 Build 0)  -->
<!DOCTYPE svg PUBLIC "-//W3C//DTD SVG 1.1//EN" "http://www.w3.org/Graphics/SVG/1.1/DTD/svg11.dtd">
<svg version="1.1" id="Layer_1" xmlns="http://www.w3.org/2000/svg" xmlns:xlink="http://www.w3.org/1999/xlink" x="0px" y="0px"
	 width="173.76px" height="121.89px" viewBox="0 0 173.76 121.89" enable-background="new 0 0 173.76 121.89" xml:space="preserve">
<path fill="#6B6966" d="M86.529,48.371c5.509,0,11.017-0.001,16.526,0.002c0.213,0,0.43,0.014,0.639,0.055
	c0.798,0.158,1.134,0.517,1.105,1.328c-0.035,0.973-0.144,1.944-0.23,2.915c-0.284,3.211-0.568,6.421-0.86,9.631
	c-0.251,2.764-0.516,5.527-0.77,8.291c-0.273,2.978-0.535,5.958-0.811,8.936c-0.113,1.217-0.269,2.431-0.365,3.65
	c-0.061,0.772-0.008,1.554-0.078,2.326c-0.243,2.679-0.617,5.35-0.745,8.033c-0.096,2.002-0.373,3.975-0.578,5.96
	c-0.206,1.989-2.619,2.905-4.472,2.915c-5.872,0.032-11.744,0.029-17.617,0.036c-1.075,0.001-2.15-0.012-3.225-0.028
	c-2.193-0.033-2.186-1.034-2.397-3.214c-0.474-4.903-0.892-9.812-1.425-14.708c-0.406-3.728-0.737-7.455-0.9-11.202
	c-0.089-2.059-0.395-4.109-0.593-6.164c-0.201-2.086-0.386-4.174-0.582-6.26c-0.316-3.372-0.541-6.754-0.957-10.117
	c-0.046-0.375-0.058-0.76-0.036-1.137c0.041-0.69,0.368-1.045,1.055-1.171c0.274-0.05,0.558-0.072,0.837-0.072
	C75.544,48.37,81.037,48.371,86.529,48.371z M86.489,50.128c-4.798,0-9.596,0.034-14.393-0.016c-1.977-0.02-2.086,0.705-1.883,2.182
	c0.322,2.339,0.441,4.701,0.758,7.038c0.147,1.086,0.026,2.171,0.171,3.255c0.328,2.455,0.48,4.928,0.698,7.394
	c0.324,3.656,0.661,7.311,0.969,10.968c0.143,1.702,0.441,3.388,0.465,5.109c0.024,1.694,0.29,3.385,0.446,5.078
	c0.225,2.436,0.41,4.876,0.68,7.307c0.214,1.921,0.631,2.236,2.587,2.236c5.377,0,10.754,0,16.131,0
	c1.125,0,2.251,0.031,3.374-0.005c1.136-0.037,1.815-0.614,2.039-1.667c0.069-0.322,0.119-0.656,0.112-0.983
	c-0.03-1.576,0.219-3.13,0.353-4.692c0.294-3.427,0.634-6.849,0.939-10.275c0.145-1.628,0.256-3.261,0.413-4.886
	c0.159-1.643,0.328-3.287,0.485-4.931c0.19-1.99,0.341-3.984,0.522-5.975c0.147-1.611,0.328-3.218,0.467-4.829
	c0.163-1.891,0.34-3.78,0.468-5.675c0.122-1.797,0.344-3.587,0.504-5.382c0.071-0.791-0.32-1.205-1.121-1.247
	c-0.149-0.008-0.298-0.004-0.447-0.004C96.316,50.128,91.402,50.128,86.489,50.128z"/>
<path fill="#FFFFFF" d="M86.489,50.128c4.914,0,9.827,0,14.741,0c0.149,0,0.298-0.004,0.447,0.004
	c0.802,0.042,1.192,0.456,1.121,1.247c-0.161,1.795-0.383,3.585-0.504,5.382c-0.128,1.894-0.306,3.784-0.468,5.675
	c-0.139,1.611-0.32,3.219-0.467,4.829c-0.181,1.991-0.332,3.985-0.522,5.975c-0.157,1.644-0.326,3.288-0.485,4.931
	c-0.157,1.625-0.268,3.258-0.413,4.886c-0.306,3.426-0.646,6.848-0.939,10.275c-0.134,1.562-0.383,3.116-0.353,4.692
	c0.006,0.327-0.044,0.662-0.112,0.983c-0.224,1.053-0.903,1.63-2.039,1.667c-1.124,0.036-2.249,0.005-3.374,0.005
	c-5.377,0-10.754,0-16.131,0c-1.956,0-2.373-0.314-2.587-2.236c-0.271-2.431-0.456-4.871-0.68-7.307
	c-0.156-1.693-0.422-3.384-0.446-5.078c-0.024-1.721-0.322-3.407-0.465-5.109c-0.308-3.656-0.645-7.312-0.969-10.968
	c-0.218-2.466-0.37-4.939-0.698-7.394c-0.145-1.083-0.024-2.169-0.171-3.255c-0.317-2.338-0.436-4.699-0.758-7.038
	c-0.204-1.477-0.095-2.202,1.883-2.182C76.893,50.162,81.691,50.128,86.489,50.128z M80,77.929c-0.006,0-0.011,0-0.017,0
	c0,4.699,0,9.397,0,14.096c0,0.281,0.001,0.563-0.004,0.844c-0.002,0.092,0.024,0.225-0.119,0.218
	c-0.053-0.002-0.126-0.106-0.144-0.175c-0.028-0.11-0.015-0.23-0.024-0.345c-0.104-1.346-0.203-2.692-0.316-4.037
	c-0.12-1.426-0.258-2.85-0.379-4.276c-0.066-0.78-0.103-1.564-0.15-2.344c-0.1-1.687-0.364-3.364-0.539-5.047
	c-0.179-1.718-0.332-3.44-0.495-5.16c-0.22-2.321-0.317-4.652-0.596-6.968c-0.193-1.603-0.342-3.211-0.506-4.817
	c-0.021-0.209-0.086-0.343-0.325-0.344c-1.073-0.006-2.147,0.037-3.216-0.1c-0.267-0.034-0.359,0.095-0.332,0.345
	c0.035,0.327,0.066,0.654,0.1,0.981c0.111,1.062,0.219,2.124,0.333,3.186c0.151,1.405,0.309,2.81,0.459,4.216
	c0.115,1.079,0.22,2.159,0.334,3.239c0.118,1.111,0.244,2.222,0.361,3.333c0.112,1.063,0.213,2.128,0.326,3.191
	c0.153,1.438,0.315,2.875,0.469,4.313c0.112,1.047,0.212,2.094,0.324,3.141c0.154,1.438,0.318,2.875,0.469,4.314
	c0.116,1.112,0.218,2.226,0.326,3.34c0.124,1.277,0.274,2.552,0.362,3.831c0.06,0.872,0.127,0.987,1.031,0.987
	c5.639-0.001,11.278,0.059,16.915-0.084c0.708-0.018,1.188-0.364,1.336-1.066c0.399-1.891,0.411-3.824,0.579-5.74
	c0.127-1.443,0.211-2.891,0.292-4.337c0.113-2.022,0.178-4.047,0.41-6.061c0.141-1.225,0.231-2.458,0.435-3.672
	c0.231-1.38,0.418-2.767,0.533-4.155c0.117-1.413,0.366-2.798,0.584-4.192c0.226-1.444,0.412-2.894,0.554-4.351
	c0.069-0.714,0.147-1.434,0.327-2.142c0.352-1.384-0.033-2.186-1.481-2.443c-0.616-0.11-1.237-0.165-1.865-0.164
	c-3.392,0.004-6.783,0.003-10.175,0.001c-1.886-0.001-3.772-0.003-5.658-0.017c-0.3-0.002-0.444,0.052-0.443,0.402
	c0.002,1.173-0.05,2.346-0.059,3.518C79.979,68.233,80,73.081,80,77.929z"/>
<path fill="#EDBD1F" d="M80,77.929c0-4.848-0.021-9.695,0.015-14.542c0.009-1.171,0.061-2.345,0.059-3.518
	c-0.001-0.35,0.143-0.404,0.443-0.402c1.886,0.014,3.772,0.016,5.658,0.017c3.392,0.002,6.783,0.002,10.175-0.001
	c0.627-0.001,1.249,0.054,1.865,0.164c1.447,0.257,1.833,1.059,1.481,2.443c-0.18,0.709-0.257,1.428-0.327,2.142
	c-0.142,1.457-0.328,2.907-0.554,4.351c-0.218,1.394-0.467,2.779-0.584,4.192c-0.115,1.388-0.302,2.775-0.533,4.155
	c-0.204,1.214-0.294,2.447-0.435,3.672c-0.232,2.014-0.297,4.039-0.41,6.061c-0.081,1.447-0.165,2.894-0.292,4.337
	c-0.169,1.916-0.181,3.848-0.579,5.74c-0.148,0.702-0.628,1.048-1.336,1.066c-5.638,0.143-11.277,0.083-16.915,0.084
	c-0.904,0-0.971-0.115-1.031-0.987c-0.088-1.279-0.238-2.554-0.362-3.831c-0.108-1.113-0.209-2.227-0.326-3.34
	c-0.15-1.439-0.315-2.876-0.469-4.314c-0.112-1.047-0.212-2.094-0.324-3.141c-0.154-1.438-0.316-2.875-0.469-4.313
	c-0.113-1.063-0.214-2.127-0.326-3.191c-0.117-1.112-0.244-2.222-0.361-3.333c-0.114-1.079-0.219-2.159-0.334-3.239
	c-0.15-1.406-0.308-2.81-0.459-4.216c-0.114-1.062-0.223-2.124-0.333-3.186c-0.034-0.327-0.065-0.654-0.1-0.981
	c-0.027-0.25,0.065-0.38,0.332-0.345c1.069,0.137,2.143,0.094,3.216,0.1c0.239,0.001,0.304,0.136,0.325,0.344
	c0.164,1.606,0.313,3.214,0.506,4.817c0.279,2.316,0.376,4.647,0.596,6.968c0.163,1.72,0.317,3.441,0.495,5.16
	c0.175,1.683,0.439,3.36,0.539,5.047c0.046,0.78,0.084,1.564,0.15,2.344c0.121,1.426,0.259,2.85,0.379,4.276
	c0.113,1.345,0.212,2.691,0.316,4.037c0.009,0.115-0.004,0.235,0.024,0.345c0.018,0.069,0.092,0.173,0.144,0.175
	c0.143,0.007,0.117-0.127,0.119-0.218c0.005-0.281,0.004-0.562,0.004-0.844c0-4.699,0-9.397,0-14.096
	C79.989,77.929,79.994,77.929,80,77.929z"/>
<line fill="none" x1="57.765" y1="112.597" x2="152.065" y2="112.597"/>
<g>
	<g>
		<path fill="#5C8C45" d="M100.584,34.423"/>
	</g>
</g>
<g>
	<g>
		<g>
			<path fill="#5C8C45" d="M55.777,116.578c-12.803-1.727-25.489-4.538-37.92-8.429c3.402-1.659,6.726-3.395,9.969-5.202
				c-1.74-3.652-3.365-7.322-4.875-11.004c11.511,3.602,23.259,6.203,35.116,7.802C57.306,105.357,56.543,110.967,55.777,116.578z"
				/>
			<path fill="#5C8C45" d="M114.72,116.77c12.903-1.362,25.75-3.823,38.399-7.396c-3.443-1.895-6.802-3.867-10.072-5.911
				c1.803-3.618,3.491-7.255,5.063-10.905c-11.638,3.513-23.494,6.007-35.438,7.485C113.357,105.618,114.04,111.194,114.72,116.77z"
				/>
			<path fill="#98C34F" d="M136.636,108.174c-32.558,7.43-66.313,7.52-98.814,0.317c1.633-7.319,3.261-14.64,4.884-21.961
				c29.25,6.48,59.632,6.398,88.942-0.293C133.315,93.548,134.978,100.861,136.636,108.174z"/>
		</g>
		<g>
			<path fill="#FFFFFF" d="M60.871,94.357c-0.45,3.597-0.901,7.193-1.353,10.79c0.234,0.207,0.466,0.361,0.695,0.465
				c0.227,0.103,0.449,0.168,0.667,0.193c0.529,0.063,0.994-0.065,1.392-0.38c0.399-0.315,0.744-0.744,1.034-1.287
				c0.29-0.543,0.522-1.158,0.696-1.846c0.173-0.688,0.296-1.369,0.367-2.042c0.123-1.161,0.14-2.162,0.058-3.002
				c-0.083-0.842-0.284-1.544-0.601-2.109c-0.318-0.564-0.758-1.002-1.321-1.313c-0.564-0.312-1.261-0.519-2.095-0.626
				c-0.577-0.073-1.14-0.06-1.69,0.043c-0.549,0.103-1.048,0.29-1.494,0.562c-0.446,0.272-0.824,0.628-1.134,1.07
				c-0.311,0.442-0.513,0.967-0.604,1.575c-0.054,0.36-0.057,0.67-0.009,0.931c0.049,0.261,0.116,0.48,0.204,0.657
				c0.088,0.178,0.187,0.322,0.299,0.434c0.112,0.111,0.204,0.198,0.276,0.258c-0.805-0.116-1.411-0.385-1.818-0.803
				c-0.407-0.417-0.543-1.036-0.414-1.854c0.089-0.569,0.332-1.096,0.725-1.582c0.392-0.485,0.892-0.884,1.496-1.2
				c0.605-0.316,1.292-0.543,2.062-0.683c0.77-0.141,1.586-0.155,2.457-0.045c1.228,0.155,2.241,0.478,3.043,0.977
				c0.803,0.499,1.437,1.106,1.901,1.828c0.463,0.721,0.774,1.523,0.928,2.406c0.153,0.884,0.189,1.782,0.103,2.694
				c-0.083,0.888-0.261,1.747-0.536,2.577c-0.276,0.831-0.619,1.563-1.03,2.197c-0.412,0.634-0.878,1.132-1.4,1.494
				c-0.52,0.363-1.07,0.512-1.644,0.448c-0.41-0.046-0.837-0.184-1.28-0.412c-0.443-0.229-0.914-0.563-1.409-1.005
				c-0.035,0.28-0.071,0.56-0.106,0.84c-0.745-0.093-1.49-0.19-2.234-0.29c0.543-3.983,1.084-7.966,1.624-11.95
				C59.44,94.365,60.156,94.363,60.871,94.357z"/>
			<path fill="#FFFFFF" d="M74.407,100.891c-0.05,0.876-0.477,1.589-1.286,2.129c-0.81,0.54-1.911,0.832-3.298,0.863
				c0.014,0.504,0.08,0.918,0.199,1.242c0.119,0.324,0.274,0.584,0.465,0.78c0.19,0.197,0.416,0.339,0.677,0.426
				c0.262,0.088,0.536,0.141,0.823,0.161c0.655,0.043,1.28-0.075,1.872-0.356c0.59-0.279,1.082-0.78,1.473-1.501
				c0.216,0.011,0.433,0.022,0.649,0.032c-0.199,0.455-0.466,0.885-0.8,1.287c-0.336,0.404-0.726,0.753-1.168,1.049
				c-0.443,0.295-0.917,0.52-1.424,0.676c-0.506,0.157-1.021,0.217-1.543,0.179c-0.481-0.033-0.941-0.143-1.374-0.327
				c-0.434-0.185-0.808-0.463-1.121-0.836c-0.313-0.372-0.551-0.842-0.713-1.409c-0.162-0.569-0.207-1.252-0.136-2.052
				c0.046-0.525,0.161-1.088,0.341-1.69c0.18-0.601,0.443-1.151,0.785-1.651c0.342-0.5,0.767-0.905,1.276-1.218
				c0.507-0.313,1.115-0.443,1.824-0.394c0.328,0.023,0.645,0.079,0.95,0.168c0.304,0.089,0.575,0.231,0.816,0.427
				c0.238,0.197,0.425,0.456,0.558,0.778C74.382,99.979,74.436,100.391,74.407,100.891z M69.86,103.15
				c0.965-0.063,1.744-0.324,2.333-0.774c0.589-0.451,0.904-1.035,0.949-1.748c0.031-0.476-0.034-0.823-0.193-1.04
				c-0.159-0.218-0.395-0.336-0.712-0.358c-0.343-0.023-0.652,0.081-0.928,0.312c-0.277,0.232-0.516,0.539-0.717,0.919
				c-0.204,0.381-0.367,0.809-0.491,1.284C69.976,102.218,69.897,102.686,69.86,103.15z"/>
			<path fill="#FFFFFF" d="M83.131,104.898c-0.402,0.495-0.815,0.906-1.237,1.228c-0.423,0.324-0.837,0.606-1.241,0.846
				c-0.157,0.247-0.355,0.451-0.593,0.613c-0.239,0.162-0.494,0.292-0.765,0.39c-0.272,0.098-0.543,0.167-0.814,0.207
				c-0.269,0.039-0.516,0.056-0.735,0.047c-0.605-0.025-1.101-0.135-1.484-0.328c-0.383-0.194-0.684-0.431-0.903-0.713
				c-0.22-0.281-0.367-0.59-0.444-0.927c-0.077-0.337-0.108-0.656-0.091-0.957c0.018-0.326,0.105-0.607,0.261-0.843
				c0.155-0.237,0.336-0.401,0.544-0.491c0.399-0.921,0.786-1.835,1.162-2.741c0.376-0.906,0.633-1.82,0.779-2.743
				c0.669-0.097,1.338-0.197,2.005-0.3c0.276,1.201,0.507,2.18,0.69,2.939c0.183,0.759,0.334,1.4,0.447,1.924
				c0.113,0.523,0.196,0.983,0.246,1.381c0.05,0.396,0.069,0.833,0.056,1.309c0.235-0.132,0.456-0.273,0.664-0.426
				c0.208-0.153,0.407-0.296,0.6-0.43C82.562,104.888,82.847,104.893,83.131,104.898z M78.857,105.542
				c0.014-0.388,0.004-0.735-0.033-1.037c-0.036-0.303-0.095-0.637-0.176-1.005c-0.081-0.367-0.181-0.813-0.302-1.339
				c-0.12-0.526-0.257-1.2-0.409-2.022c-0.109,0.699-0.299,1.363-0.575,1.991c-0.276,0.629-0.531,1.276-0.764,1.944
				c0.117,0.08,0.218,0.189,0.299,0.324c0.082,0.135,0.119,0.31,0.109,0.522c-0.011,0.239-0.088,0.418-0.229,0.536
				c-0.142,0.119-0.294,0.175-0.457,0.167c-0.217-0.01-0.397-0.106-0.537-0.289c0.087,0.444,0.26,0.794,0.521,1.052
				c0.261,0.257,0.619,0.396,1.07,0.414c0.436,0.019,0.79-0.071,1.057-0.269C78.699,106.337,78.84,106.006,78.857,105.542z"/>
			<path fill="#FFFFFF" d="M84.356,98.873c0.534,0.006,1.067,0.009,1.601,0.01c-0.001,0.226-0.002,0.452-0.002,0.678
				c-0.535-0.001-1.071-0.005-1.606-0.011c-0.037,3.413-0.075,6.827-0.114,10.24c-0.007,0.663-0.086,1.201-0.238,1.613
				c-0.151,0.411-0.349,0.735-0.591,0.97c-0.243,0.234-0.522,0.389-0.839,0.465c-0.318,0.077-0.653,0.111-1.004,0.103
				c-0.759-0.017-1.314-0.191-1.661-0.514c-0.349-0.325-0.511-0.781-0.491-1.37c0.011-0.313,0.1-0.599,0.267-0.858
				c0.168-0.257,0.384-0.493,0.646-0.705c0.263-0.213,0.554-0.399,0.877-0.561c0.321-0.162,0.648-0.302,0.982-0.421
				c0.077-3.699,0.153-7.399,0.227-11.098c0.022-1.091,0.305-1.903,0.844-2.44c0.54-0.537,1.218-0.801,2.042-0.797
				c0.387,0.002,0.741,0.06,1.063,0.173c0.322,0.113,0.606,0.288,0.852,0.525c0.246,0.237,0.438,0.532,0.577,0.882
				c0.138,0.35,0.21,0.763,0.213,1.24c-0.254,0.002-0.509,0.003-0.763,0.004c-0.08-0.501-0.22-0.896-0.422-1.184
				c-0.203-0.288-0.535-0.432-1.002-0.434c-0.311-0.001-0.557,0.064-0.74,0.195c-0.183,0.13-0.327,0.307-0.433,0.532
				c-0.106,0.224-0.177,0.496-0.213,0.816c-0.036,0.32-0.056,0.668-0.06,1.045C84.363,98.272,84.36,98.572,84.356,98.873z
				 M81.165,111.954c0.406,0.01,0.67-0.181,0.79-0.567c0.121-0.386,0.187-0.918,0.201-1.595c0.004-0.195,0.008-0.389,0.012-0.584
				c-0.628,0.263-1.106,0.553-1.434,0.871c-0.328,0.317-0.497,0.633-0.507,0.946c-0.007,0.251,0.078,0.467,0.253,0.647
				C80.658,111.853,80.885,111.947,81.165,111.954z"/>
			<path fill="#FFFFFF" d="M89.08,98.868c0.006,0.527,0.012,1.054,0.019,1.581c0.156-0.227,0.309-0.443,0.459-0.646
				c0.15-0.202,0.316-0.381,0.497-0.534c0.183-0.154,0.385-0.28,0.607-0.378c0.222-0.099,0.471-0.151,0.747-0.158
				c0.448-0.01,0.78,0.091,0.998,0.304c0.216,0.214,0.33,0.476,0.339,0.79c0.006,0.188-0.023,0.346-0.086,0.473
				c-0.064,0.128-0.14,0.231-0.232,0.308c-0.091,0.078-0.188,0.134-0.295,0.168c-0.105,0.035-0.197,0.052-0.277,0.055
				c-0.12,0.003-0.217-0.02-0.291-0.068c-0.074-0.048-0.149-0.099-0.223-0.154c-0.074-0.056-0.159-0.107-0.253-0.155
				c-0.093-0.047-0.214-0.07-0.36-0.068c-0.306,0.007-0.596,0.112-0.872,0.317c-0.276,0.205-0.526,0.422-0.75,0.65
				c0.027,2.308,0.053,4.616,0.078,6.924c-0.688,0.008-1.376,0.013-2.065,0.015c-0.005-3.136-0.012-6.272-0.019-9.408
				C87.762,98.881,88.421,98.876,89.08,98.868z"/>
			<path fill="#FFFFFF" d="M100.417,98.424c0.139,2.128,0.279,4.256,0.417,6.384c0.009,0.126,0.026,0.281,0.053,0.468
				c0.025,0.186,0.075,0.37,0.148,0.546c0.072,0.177,0.176,0.327,0.308,0.451c0.131,0.123,0.307,0.177,0.525,0.162
				c0.671-0.047,1.113-0.767,1.32-2.154c0.25-0.019,0.501-0.039,0.751-0.059c-0.087,0.799-0.229,1.437-0.425,1.912
				c-0.198,0.475-0.418,0.841-0.661,1.097c-0.244,0.258-0.5,0.43-0.77,0.519c-0.271,0.088-0.516,0.14-0.736,0.155
				c-0.316,0.021-0.59-0.012-0.824-0.097c-0.233-0.085-0.434-0.204-0.601-0.358c-0.168-0.153-0.306-0.333-0.414-0.54
				c-0.109-0.207-0.196-0.423-0.263-0.645c-0.225,0.629-0.544,1.096-0.954,1.401c-0.411,0.305-0.853,0.469-1.32,0.491
				c-0.4,0.018-0.78-0.015-1.142-0.099c-0.361-0.085-0.677-0.239-0.947-0.461c-0.269-0.222-0.486-0.515-0.648-0.88
				c-0.163-0.364-0.254-0.817-0.272-1.355c-0.073-2.2-0.147-4.401-0.221-6.601c0.659-0.023,1.317-0.048,1.976-0.077
				c0.092,2.131,0.183,4.261,0.274,6.392c0.027,0.615,0.16,1.044,0.404,1.291c0.244,0.247,0.544,0.361,0.9,0.344
				c0.192-0.009,0.38-0.067,0.566-0.171c0.187-0.104,0.352-0.247,0.492-0.432c0.14-0.183,0.252-0.403,0.332-0.659
				c0.082-0.256,0.114-0.546,0.096-0.872c-0.112-2.01-0.225-4.02-0.338-6.031C99.102,98.508,99.76,98.468,100.417,98.424z"/>
			<path fill="#FFFFFF" d="M104.452,95.248c0.082,0.95,0.164,1.899,0.246,2.849c0.506-0.044,1.012-0.09,1.518-0.138
				c0.021,0.225,0.042,0.45,0.063,0.675c-0.508,0.048-1.015,0.093-1.523,0.137c0.164,1.901,0.327,3.802,0.49,5.704
				c0.014,0.15,0.036,0.32,0.064,0.513c0.03,0.192,0.084,0.373,0.16,0.542c0.076,0.168,0.184,0.307,0.325,0.414
				c0.14,0.107,0.326,0.15,0.559,0.128c0.369-0.034,0.704-0.236,1.006-0.605c0.302-0.369,0.512-0.907,0.635-1.612
				c0.25-0.025,0.5-0.05,0.75-0.076c-0.15,0.81-0.336,1.456-0.556,1.938c-0.221,0.483-0.464,0.856-0.729,1.12
				c-0.266,0.265-0.536,0.445-0.811,0.54c-0.277,0.095-0.531,0.152-0.764,0.173c-0.494,0.043-0.906-0.006-1.236-0.148
				c-0.329-0.142-0.594-0.338-0.791-0.585c-0.199-0.248-0.344-0.529-0.437-0.841c-0.094-0.313-0.151-0.625-0.175-0.938
				c-0.155-2.034-0.311-4.069-0.467-6.103c-0.225,0.018-0.449,0.035-0.674,0.052c-0.017-0.225-0.033-0.451-0.05-0.676
				c0.224-0.017,0.448-0.033,0.672-0.051c-0.066-0.863-0.133-1.725-0.199-2.588C103.17,95.533,103.812,95.392,104.452,95.248z"/>
			<path fill="#FFFFFF" d="M109.038,94.799c0.103,0.948,0.207,1.895,0.31,2.843c0.505-0.055,1.011-0.113,1.516-0.172
				c0.026,0.224,0.052,0.449,0.078,0.673c-0.507,0.059-1.014,0.116-1.521,0.171c0.206,1.897,0.411,3.794,0.616,5.691
				c0.017,0.149,0.043,0.319,0.076,0.511c0.035,0.191,0.093,0.371,0.172,0.538c0.08,0.168,0.191,0.303,0.335,0.407
				c0.142,0.104,0.329,0.143,0.562,0.117c0.368-0.042,0.699-0.251,0.993-0.627c0.294-0.376,0.492-0.918,0.599-1.626
				c0.25-0.031,0.499-0.062,0.749-0.093c-0.132,0.813-0.304,1.463-0.514,1.95c-0.21,0.487-0.445,0.866-0.705,1.136
				c-0.26,0.271-0.527,0.457-0.799,0.558c-0.275,0.101-0.528,0.164-0.761,0.19c-0.493,0.054-0.906,0.013-1.239-0.121
				c-0.332-0.134-0.602-0.324-0.804-0.568c-0.205-0.243-0.356-0.521-0.456-0.832c-0.101-0.311-0.165-0.622-0.196-0.934
				c-0.2-2.031-0.401-4.061-0.602-6.092c-0.224,0.023-0.449,0.045-0.673,0.067c-0.022-0.225-0.043-0.45-0.065-0.675
				c0.224-0.021,0.447-0.043,0.671-0.066c-0.085-0.861-0.171-1.722-0.256-2.583C107.763,95.112,108.401,94.957,109.038,94.799z"/>
			<path fill="#FFFFFF" d="M118.504,98.817c0.132,0.868-0.14,1.653-0.823,2.349c-0.683,0.696-1.704,1.209-3.058,1.527
				c0.118,0.49,0.269,0.882,0.452,1.174c0.183,0.292,0.388,0.515,0.616,0.668c0.227,0.153,0.48,0.245,0.753,0.277
				c0.275,0.031,0.556,0.027,0.841-0.013c0.434-0.062,0.835-0.19,1.202-0.384c0.367-0.194,0.653-0.478,0.859-0.852
				c0.026,0.085,0.05,0.167,0.068,0.247c0.02,0.079,0.035,0.15,0.043,0.212c0.044,0.286,0.004,0.551-0.119,0.799
				c-0.123,0.247-0.304,0.474-0.546,0.681c-0.241,0.207-0.529,0.379-0.866,0.517c-0.335,0.137-0.696,0.233-1.08,0.286
				c-0.466,0.065-0.94,0.051-1.426-0.043c-0.486-0.094-0.939-0.288-1.356-0.582c-0.418-0.294-0.775-0.702-1.072-1.222
				c-0.298-0.519-0.492-1.172-0.586-1.956c-0.063-0.524-0.068-1.098-0.015-1.724c0.052-0.625,0.196-1.217,0.428-1.777
				c0.233-0.56,0.566-1.045,1-1.455c0.433-0.411,1.002-0.664,1.708-0.763c0.327-0.045,0.65-0.056,0.968-0.033
				c0.316,0.025,0.612,0.108,0.888,0.251c0.275,0.144,0.512,0.359,0.71,0.645C118.291,97.93,118.429,98.321,118.504,98.817z
				 M114.507,101.968c0.933-0.262,1.645-0.677,2.13-1.24c0.484-0.563,0.673-1.2,0.57-1.907c-0.068-0.472-0.204-0.798-0.405-0.978
				c-0.201-0.18-0.457-0.248-0.773-0.203c-0.342,0.048-0.623,0.214-0.845,0.497c-0.224,0.284-0.396,0.634-0.515,1.048
				c-0.121,0.415-0.193,0.868-0.217,1.358C114.429,101.032,114.447,101.507,114.507,101.968z"/>
		</g>
	</g>
</g>
<g>
	<g>
		<path fill="#98C15D" d="M75.071,28.795"/>
		<path fill="#98C15D" d="M66.893,34.89"/>
	</g>
	<g>
		<path fill="#98C15D" d="M78.554,28.795"/>
		<path fill="#98C15D" d="M86.732,34.89"/>
		<path fill="#98C15D" d="M77.798,19.728"/>
		<path fill="#98C15D" d="M82.685,27.589"/>
	</g>
</g>
<g>
	<g>
		<path fill="#98C15D" d="M68.59,32.708c0,0-13.701,4.385-17.902-8.404C50.688,24.304,63.292,20.651,68.59,32.708z"/>
		<path fill="#98C15D" d="M64.925,42.838c0,0-8.624,11.515-19.459,3.529C45.466,46.367,53.619,36.083,64.925,42.838z"/>
		<path fill="#98C15D" d="M72.433,28.948c0,0-9.297-10.979,0.906-19.758C73.339,9.191,81.54,19.437,72.433,28.948z"/>
		<path fill="#98C15D" d="M77.291,23.368c0,0,1.297-7.062,7.914-5.898C85.205,17.47,83.844,23.877,77.291,23.368z"/>
		<path fill="#98C15D" d="M81.208,16.302c0,0-1.246-6.395,4.729-7.607C85.936,8.695,86.911,14.559,81.208,16.302z"/>
		<path fill="#98C15D" d="M67.018,23.829c0,0-7.956-2.478-5.695-9.94C61.323,13.889,68.515,16.349,67.018,23.829z"/>
		<path fill="#98C15D" d="M57.449,37.718c0,0-8.095,1.974-10.001-5.587C47.448,32.132,54.88,30.536,57.449,37.718z"/>
	</g>
	<g>
		<path fill="#98C15D" d="M105.192,32.708c0,0,13.701,4.385,17.902-8.404C123.094,24.304,110.49,20.651,105.192,32.708z"/>
		<path fill="#98C15D" d="M108.857,42.838c0,0,8.624,11.515,19.459,3.529C128.316,46.367,120.162,36.083,108.857,42.838z"/>
		<path fill="#98C15D" d="M101.349,28.948c0,0,9.297-10.979-0.906-19.758C100.442,9.191,92.241,19.437,101.349,28.948z"/>
		<path fill="#98C15D" d="M96.491,23.368c0,0-1.298-7.062-7.914-5.898C88.576,17.47,89.938,23.877,96.491,23.368z"/>
		<path fill="#98C15D" d="M92.574,16.302c0,0,1.245-6.395-4.729-7.607C87.845,8.695,86.871,14.559,92.574,16.302z"/>
		<path fill="#98C15D" d="M106.764,23.829c0,0,7.955-2.478,5.695-9.94C112.459,13.889,105.267,16.349,106.764,23.829z"/>
		<path fill="#98C15D" d="M116.332,37.718c0,0,8.095,1.974,10.001-5.587C126.333,32.132,118.902,30.536,116.332,37.718z"/>
	</g>
</g>
<path fill="#C49A6C" d="M84.048,51.202"/>
<path fill="#A9253C" d="M85.165,46.413c0,0-6.883-0.103-7.457-2.765c-0.475-2.195,3.075-1.733,3.075-1.733s-0.367-3.499,2.32-2.417
	C86.107,40.707,85.165,46.413,85.165,46.413z"/>
<path fill="#019147" d="M91.916,43.383c0,0,5.915-2.737,5.388-5.261c-0.433-2.081-3.326-0.315-3.326-0.315s-1.028-3.169-2.938-1.198
	C88.909,38.809,91.916,43.383,91.916,43.383z"/>
<path fill="#F9EC23" d="M85.882,35.151c0,0-4.245-1.042-4.425-3.041c-0.181-1.997,2.332-0.918,2.332-0.918s0.026-2.339,2.054-1.729
	C88.164,30.159,85.882,35.151,85.882,35.151z"/>
</svg>
